<svg width="302" height="60" viewBox="0 0 302 60" fill="none" xmlns="http://www.w3.org/2000/svg">
<path d="M102.988 10H65.5191L65.5143 12.011H86.2479L64.0635 49.7356H101.532L101.508 47.7295H80.7988L102.988 10Z" fill="#041577"/>
<path d="M43.7666 21.353L56.7651 49.7356H41.3811L28.3826 21.353H43.7666Z" fill="#041577"/>
<path d="M15.6297 49.7356L34.87 10H19.2403L0 49.7356H15.6297Z" fill="#041577"/>
<path d="M124.072 10H110.286V49.7356H124.072V10Z" fill="#041577"/>
<path d="M160.128 12.8486C157.067 10.9823 153.547 9.99644 149.959 10H132.992V48.9246H149.959C154.216 48.9276 158.356 47.5423 161.75 44.9798C165.144 42.4174 167.604 38.8184 168.756 34.7315C169.908 30.6447 169.689 26.2943 168.131 22.3435C166.573 18.3927 163.763 15.0583 160.128 12.8486ZM149.959 38.4279H143.361V20.5113H149.959C152.346 20.5113 154.636 21.4571 156.324 23.1408C158.012 24.8244 158.961 27.108 158.961 29.489C158.961 31.8701 158.012 34.1536 156.324 35.8372C154.636 37.5209 152.346 38.4668 149.959 38.4668V38.4279Z" fill="#041577"/>
<path d="M185.966 1V59" stroke="black" stroke-width="3"/>
<path d="M205.727 4.85156H208.211L211.859 16H209.789L208.852 12.9766H205.055L204.156 16H202.109L205.727 4.85156ZM208.336 11.2969L206.961 6.57812H206.93L205.555 11.2969H208.336ZM213.266 7.75781H214.867L214.977 8.65625C215.383 8.39062 215.839 8.17188 216.344 8C216.849 7.82812 217.417 7.72656 218.047 7.69531L218.031 9.61719C217.38 9.6276 216.815 9.66146 216.336 9.71875C215.862 9.77083 215.456 9.86458 215.117 10V16H213.266V7.75781ZM219.078 11.875C219.078 11.0938 219.172 10.4297 219.359 9.88281C219.552 9.33594 219.81 8.89323 220.133 8.55469C220.461 8.21094 220.844 7.96094 221.281 7.80469C221.719 7.64844 222.185 7.57031 222.68 7.57031C223.06 7.57031 223.401 7.59635 223.703 7.64844C224.005 7.69531 224.263 7.7474 224.477 7.80469C224.727 7.8724 224.943 7.94792 225.125 8.03125V9.3125C224.948 9.29688 224.755 9.27865 224.547 9.25781C224.37 9.2474 224.169 9.23698 223.945 9.22656C223.721 9.21094 223.487 9.20312 223.242 9.20312C222.852 9.20312 222.516 9.23698 222.234 9.30469C221.953 9.3724 221.724 9.5026 221.547 9.69531C221.37 9.88281 221.24 10.151 221.156 10.5C221.073 10.8438 221.031 11.2969 221.031 11.8594C221.031 12.4323 221.078 12.8958 221.172 13.25C221.271 13.6042 221.419 13.8802 221.617 14.0781C221.815 14.2708 222.062 14.401 222.359 14.4688C222.656 14.5312 223.008 14.5625 223.414 14.5625C223.669 14.5625 223.904 14.5573 224.117 14.5469C224.336 14.5312 224.526 14.513 224.688 14.4922C224.875 14.4714 225.044 14.4453 225.195 14.4141V15.7109C225.029 15.8047 224.826 15.888 224.586 15.9609C224.383 16.0234 224.128 16.0807 223.82 16.1328C223.513 16.1849 223.154 16.2109 222.742 16.2109C222.237 16.2109 221.76 16.1406 221.312 16C220.87 15.8646 220.482 15.6302 220.148 15.2969C219.82 14.9635 219.56 14.5208 219.367 13.9688C219.174 13.4115 219.078 12.7135 219.078 11.875ZM227.188 3.85938H229.039V8.15625C229.315 8.05208 229.612 7.95573 229.93 7.86719C230.201 7.79427 230.51 7.72656 230.859 7.66406C231.214 7.60156 231.578 7.57031 231.953 7.57031C232.328 7.57031 232.667 7.61198 232.969 7.69531C233.276 7.77344 233.534 7.91667 233.742 8.125C233.956 8.32812 234.12 8.60677 234.234 8.96094C234.349 9.3099 234.406 9.75781 234.406 10.3047V16H232.547V10.5312C232.547 10.3125 232.531 10.1224 232.5 9.96094C232.469 9.79427 232.401 9.65885 232.297 9.55469C232.198 9.44531 232.052 9.36458 231.859 9.3125C231.672 9.26042 231.422 9.23438 231.109 9.23438C230.859 9.23438 230.612 9.25 230.367 9.28125C230.128 9.3125 229.909 9.34635 229.711 9.38281C229.477 9.42448 229.253 9.47135 229.039 9.52344V16H227.188V3.85938ZM238.055 6.35938C237.841 6.35938 237.664 6.34375 237.523 6.3125C237.388 6.28125 237.276 6.22656 237.188 6.14844C237.104 6.07031 237.044 5.96354 237.008 5.82812C236.977 5.69271 236.961 5.51823 236.961 5.30469C236.961 5.09115 236.977 4.91667 237.008 4.78125C237.044 4.64062 237.104 4.52865 237.188 4.44531C237.276 4.36198 237.388 4.30469 237.523 4.27344C237.664 4.24219 237.841 4.22656 238.055 4.22656C238.268 4.22656 238.443 4.24219 238.578 4.27344C238.719 4.30469 238.831 4.36198 238.914 4.44531C238.997 4.52865 239.055 4.64062 239.086 4.78125C239.117 4.91667 239.133 5.09115 239.133 5.30469C239.133 5.51823 239.117 5.69271 239.086 5.82812C239.055 5.96354 238.997 6.07031 238.914 6.14844C238.831 6.22656 238.719 6.28125 238.578 6.3125C238.443 6.34375 238.268 6.35938 238.055 6.35938ZM237.125 7.75781H238.984V16H237.125V7.75781ZM242.281 9.29688H241.062V7.75781H242.281V6.01562L244.133 5.60156V7.75781H246.211V9.29688H244.133V13.7266C244.133 13.9193 244.146 14.0781 244.172 14.2031C244.203 14.3281 244.255 14.4297 244.328 14.5078C244.406 14.5807 244.513 14.6328 244.648 14.6641C244.789 14.6901 244.969 14.7031 245.188 14.7031C245.391 14.7031 245.573 14.7005 245.734 14.6953C245.901 14.6849 246.042 14.6745 246.156 14.6641C246.292 14.6536 246.411 14.6406 246.516 14.625V15.8594C246.333 15.9323 246.138 15.9974 245.93 16.0547C245.747 16.1016 245.534 16.1432 245.289 16.1797C245.044 16.2214 244.776 16.2422 244.484 16.2422C244.078 16.2422 243.734 16.2031 243.453 16.125C243.177 16.0469 242.951 15.9297 242.773 15.7734C242.602 15.612 242.477 15.4115 242.398 15.1719C242.32 14.9271 242.281 14.6432 242.281 14.3203V9.29688ZM247.891 11.7891C247.891 10.9297 248.003 10.224 248.227 9.67188C248.451 9.11979 248.747 8.6849 249.117 8.36719C249.487 8.04948 249.909 7.83073 250.383 7.71094C250.857 7.58594 251.344 7.52344 251.844 7.52344C252.474 7.52344 252.995 7.60938 253.406 7.78125C253.823 7.95312 254.154 8.19531 254.398 8.50781C254.643 8.8151 254.815 9.1849 254.914 9.61719C255.013 10.0495 255.062 10.526 255.062 11.0469C255.062 11.2917 255.052 11.5443 255.031 11.8047C255.016 12.0651 254.992 12.3333 254.961 12.6094H249.797C249.802 12.9792 249.841 13.2917 249.914 13.5469C249.992 13.7969 250.117 14.0026 250.289 14.1641C250.466 14.3203 250.698 14.4349 250.984 14.5078C251.276 14.5755 251.638 14.6094 252.07 14.6094C252.435 14.6094 252.776 14.6016 253.094 14.5859C253.411 14.5651 253.69 14.5417 253.93 14.5156C254.211 14.4896 254.466 14.4557 254.695 14.4141V15.7109C254.43 15.8099 254.141 15.8984 253.828 15.9766C253.562 16.0443 253.253 16.1042 252.898 16.1562C252.544 16.2135 252.167 16.2422 251.766 16.2422C251.151 16.2422 250.604 16.1641 250.125 16.0078C249.646 15.8568 249.24 15.6068 248.906 15.2578C248.578 14.9036 248.326 14.4427 248.148 13.875C247.977 13.3073 247.891 12.612 247.891 11.7891ZM253.352 11.2188V10.9219C253.352 10.6094 253.331 10.3385 253.289 10.1094C253.253 9.875 253.174 9.68229 253.055 9.53125C252.935 9.38021 252.766 9.26823 252.547 9.19531C252.328 9.1224 252.036 9.08594 251.672 9.08594C251.281 9.08594 250.961 9.13281 250.711 9.22656C250.466 9.3151 250.273 9.45052 250.133 9.63281C249.997 9.8099 249.904 10.0312 249.852 10.2969C249.805 10.5625 249.781 10.8698 249.781 11.2188H253.352ZM256.375 11.875C256.375 11.0938 256.469 10.4297 256.656 9.88281C256.849 9.33594 257.107 8.89323 257.43 8.55469C257.758 8.21094 258.141 7.96094 258.578 7.80469C259.016 7.64844 259.482 7.57031 259.977 7.57031C260.357 7.57031 260.698 7.59635 261 7.64844C261.302 7.69531 261.56 7.7474 261.773 7.80469C262.023 7.8724 262.24 7.94792 262.422 8.03125V9.3125C262.245 9.29688 262.052 9.27865 261.844 9.25781C261.667 9.2474 261.466 9.23698 261.242 9.22656C261.018 9.21094 260.784 9.20312 260.539 9.20312C260.148 9.20312 259.812 9.23698 259.531 9.30469C259.25 9.3724 259.021 9.5026 258.844 9.69531C258.667 9.88281 258.536 10.151 258.453 10.5C258.37 10.8438 258.328 11.2969 258.328 11.8594C258.328 12.4323 258.375 12.8958 258.469 13.25C258.568 13.6042 258.716 13.8802 258.914 14.0781C259.112 14.2708 259.359 14.401 259.656 14.4688C259.953 14.5312 260.305 14.5625 260.711 14.5625C260.966 14.5625 261.201 14.5573 261.414 14.5469C261.633 14.5312 261.823 14.513 261.984 14.4922C262.172 14.4714 262.341 14.4453 262.492 14.4141V15.7109C262.326 15.8047 262.122 15.888 261.883 15.9609C261.68 16.0234 261.424 16.0807 261.117 16.1328C260.81 16.1849 260.451 16.2109 260.039 16.2109C259.534 16.2109 259.057 16.1406 258.609 16C258.167 15.8646 257.779 15.6302 257.445 15.2969C257.117 14.9635 256.857 14.5208 256.664 13.9688C256.471 13.4115 256.375 12.7135 256.375 11.875ZM265.062 9.29688H263.844V7.75781H265.062V6.01562L266.914 5.60156V7.75781H268.992V9.29688H266.914V13.7266C266.914 13.9193 266.927 14.0781 266.953 14.2031C266.984 14.3281 267.036 14.4297 267.109 14.5078C267.188 14.5807 267.294 14.6328 267.43 14.6641C267.57 14.6901 267.75 14.7031 267.969 14.7031C268.172 14.7031 268.354 14.7005 268.516 14.6953C268.682 14.6849 268.823 14.6745 268.938 14.6641C269.073 14.6536 269.193 14.6406 269.297 14.625V15.8594C269.115 15.9323 268.919 15.9974 268.711 16.0547C268.529 16.1016 268.315 16.1432 268.07 16.1797C267.826 16.2214 267.557 16.2422 267.266 16.2422C266.859 16.2422 266.516 16.2031 266.234 16.125C265.958 16.0469 265.732 15.9297 265.555 15.7734C265.383 15.612 265.258 15.4115 265.18 15.1719C265.102 14.9271 265.062 14.6432 265.062 14.3203V9.29688ZM271.234 7.75781H273.086V13.375C273.086 13.5938 273.099 13.7786 273.125 13.9297C273.156 14.0807 273.219 14.2057 273.312 14.3047C273.406 14.3984 273.542 14.4688 273.719 14.5156C273.896 14.5573 274.133 14.5781 274.43 14.5781C274.742 14.5781 275.026 14.5625 275.281 14.5312C275.536 14.4948 275.755 14.4557 275.938 14.4141C276.151 14.362 276.344 14.3047 276.516 14.2422V7.75781H278.367V16H277.008L276.789 15.3906C276.497 15.5521 276.182 15.6953 275.844 15.8203C275.552 15.9245 275.214 16.0208 274.828 16.1094C274.448 16.1979 274.044 16.2422 273.617 16.2422C272.81 16.2422 272.211 16.0286 271.82 15.6016C271.43 15.1693 271.234 14.4974 271.234 13.5859V7.75781ZM280.969 7.75781H282.57L282.68 8.65625C283.086 8.39062 283.542 8.17188 284.047 8C284.552 7.82812 285.12 7.72656 285.75 7.69531L285.734 9.61719C285.083 9.6276 284.518 9.66146 284.039 9.71875C283.565 9.77083 283.159 9.86458 282.82 10V16H280.969V7.75781ZM286.781 11.7891C286.781 10.9297 286.893 10.224 287.117 9.67188C287.341 9.11979 287.638 8.6849 288.008 8.36719C288.378 8.04948 288.799 7.83073 289.273 7.71094C289.747 7.58594 290.234 7.52344 290.734 7.52344C291.365 7.52344 291.885 7.60938 292.297 7.78125C292.714 7.95312 293.044 8.19531 293.289 8.50781C293.534 8.8151 293.706 9.1849 293.805 9.61719C293.904 10.0495 293.953 10.526 293.953 11.0469C293.953 11.2917 293.943 11.5443 293.922 11.8047C293.906 12.0651 293.883 12.3333 293.852 12.6094H288.688C288.693 12.9792 288.732 13.2917 288.805 13.5469C288.883 13.7969 289.008 14.0026 289.18 14.1641C289.357 14.3203 289.589 14.4349 289.875 14.5078C290.167 14.5755 290.529 14.6094 290.961 14.6094C291.326 14.6094 291.667 14.6016 291.984 14.5859C292.302 14.5651 292.581 14.5417 292.82 14.5156C293.102 14.4896 293.357 14.4557 293.586 14.4141V15.7109C293.32 15.8099 293.031 15.8984 292.719 15.9766C292.453 16.0443 292.143 16.1042 291.789 16.1562C291.435 16.2135 291.057 16.2422 290.656 16.2422C290.042 16.2422 289.495 16.1641 289.016 16.0078C288.536 15.8568 288.13 15.6068 287.797 15.2578C287.469 14.9036 287.216 14.4427 287.039 13.875C286.867 13.3073 286.781 12.612 286.781 11.7891ZM292.242 11.2188V10.9219C292.242 10.6094 292.221 10.3385 292.18 10.1094C292.143 9.875 292.065 9.68229 291.945 9.53125C291.826 9.38021 291.656 9.26823 291.438 9.19531C291.219 9.1224 290.927 9.08594 290.562 9.08594C290.172 9.08594 289.852 9.13281 289.602 9.22656C289.357 9.3151 289.164 9.45052 289.023 9.63281C288.888 9.8099 288.794 10.0312 288.742 10.2969C288.695 10.5625 288.672 10.8698 288.672 11.2188H292.242ZM207.25 36.1953C206.891 36.1953 206.531 36.1615 206.172 36.0938C205.818 36.026 205.479 35.9089 205.156 35.7422C204.839 35.5755 204.542 35.3516 204.266 35.0703C203.99 34.7839 203.75 34.4245 203.547 33.9922C203.344 33.5547 203.185 33.0365 203.07 32.4375C202.956 31.8385 202.898 31.138 202.898 30.3359C202.898 29.5651 202.964 28.8906 203.094 28.3125C203.224 27.7292 203.398 27.2266 203.617 26.8047C203.836 26.3828 204.091 26.0365 204.383 25.7656C204.674 25.4896 204.982 25.2708 205.305 25.1094C205.628 24.9479 205.956 24.8359 206.289 24.7734C206.622 24.7057 206.943 24.6719 207.25 24.6719C207.771 24.6719 208.224 24.6979 208.609 24.75C208.995 24.8021 209.318 24.8594 209.578 24.9219C209.88 24.9948 210.138 25.0781 210.352 25.1719V26.5156C210.138 26.5 209.909 26.4844 209.664 26.4688C209.456 26.4583 209.216 26.4479 208.945 26.4375C208.68 26.4219 208.401 26.4141 208.109 26.4141C207.844 26.4141 207.578 26.4245 207.312 26.4453C207.052 26.4661 206.799 26.5208 206.555 26.6094C206.315 26.6927 206.091 26.8177 205.883 26.9844C205.674 27.151 205.492 27.3802 205.336 27.6719C205.185 27.9583 205.065 28.3177 204.977 28.75C204.893 29.1823 204.852 29.7057 204.852 30.3203C204.852 30.9661 204.896 31.5182 204.984 31.9766C205.073 32.4349 205.195 32.8177 205.352 33.125C205.508 33.4323 205.69 33.6745 205.898 33.8516C206.107 34.0286 206.333 34.1641 206.578 34.2578C206.823 34.3464 207.078 34.4036 207.344 34.4297C207.609 34.4505 207.875 34.4609 208.141 34.4609C208.484 34.4609 208.797 34.4557 209.078 34.4453C209.359 34.4349 209.599 34.4245 209.797 34.4141C210.031 34.3984 210.242 34.3828 210.43 34.3672V35.7109C210.201 35.8047 209.93 35.8854 209.617 35.9531C209.346 36.0156 209.013 36.0703 208.617 36.1172C208.227 36.1693 207.771 36.1953 207.25 36.1953ZM211.953 31.875C211.953 31.1771 212.029 30.5599 212.18 30.0234C212.331 29.4818 212.565 29.026 212.883 28.6562C213.206 28.2865 213.612 28.0052 214.102 27.8125C214.591 27.6198 215.177 27.5234 215.859 27.5234C216.542 27.5234 217.128 27.6198 217.617 27.8125C218.112 28.0052 218.518 28.2865 218.836 28.6562C219.154 29.026 219.388 29.4818 219.539 30.0234C219.69 30.5599 219.766 31.1771 219.766 31.875C219.766 32.5729 219.69 33.1953 219.539 33.7422C219.388 34.2839 219.154 34.7396 218.836 35.1094C218.518 35.4792 218.112 35.7604 217.617 35.9531C217.128 36.1458 216.542 36.2422 215.859 36.2422C215.177 36.2422 214.591 36.1458 214.102 35.9531C213.612 35.7604 213.206 35.4792 212.883 35.1094C212.565 34.7396 212.331 34.2839 212.18 33.7422C212.029 33.1953 211.953 32.5729 211.953 31.875ZM215.859 34.6719C216.271 34.6719 216.604 34.612 216.859 34.4922C217.115 34.3672 217.312 34.1875 217.453 33.9531C217.594 33.7135 217.688 33.4219 217.734 33.0781C217.786 32.7292 217.812 32.3281 217.812 31.875C217.812 31.4271 217.786 31.0312 217.734 30.6875C217.688 30.3385 217.594 30.0469 217.453 29.8125C217.312 29.5729 217.115 29.3932 216.859 29.2734C216.604 29.1484 216.271 29.0859 215.859 29.0859C215.453 29.0859 215.122 29.1484 214.867 29.2734C214.612 29.3932 214.411 29.5729 214.266 29.8125C214.125 30.0469 214.029 30.3385 213.977 30.6875C213.93 31.0312 213.906 31.4271 213.906 31.875C213.906 32.3281 213.93 32.7292 213.977 33.0781C214.029 33.4219 214.125 33.7135 214.266 33.9531C214.411 34.1875 214.612 34.3672 214.867 34.4922C215.122 34.612 215.453 34.6719 215.859 34.6719ZM221.797 27.7578H223.156L223.383 28.3672C223.669 28.2109 223.982 28.0703 224.32 27.9453C224.612 27.8411 224.948 27.7448 225.328 27.6562C225.708 27.5677 226.115 27.5234 226.547 27.5234C227.359 27.5234 227.958 27.737 228.344 28.1641C228.734 28.5859 228.93 29.25 228.93 30.1562V36H227.078V30.3828C227.078 30.1693 227.062 29.987 227.031 29.8359C227.005 29.6797 226.945 29.5547 226.852 29.4609C226.758 29.362 226.622 29.2891 226.445 29.2422C226.268 29.1953 226.031 29.1719 225.734 29.1719C225.422 29.1719 225.138 29.1927 224.883 29.2344C224.628 29.2708 224.409 29.3099 224.227 29.3516C224.013 29.4036 223.82 29.4609 223.648 29.5234V36H221.797V27.7578ZM231.125 34.4141C231.354 34.4661 231.609 34.513 231.891 34.5547C232.13 34.5911 232.411 34.6224 232.734 34.6484C233.062 34.6745 233.422 34.6875 233.812 34.6875C234.24 34.6875 234.578 34.6719 234.828 34.6406C235.078 34.6094 235.266 34.5573 235.391 34.4844C235.521 34.4062 235.604 34.3021 235.641 34.1719C235.677 34.0417 235.695 33.8776 235.695 33.6797C235.695 33.5755 235.688 33.4818 235.672 33.3984C235.661 33.3099 235.63 33.2318 235.578 33.1641C235.531 33.0911 235.458 33.0312 235.359 32.9844C235.266 32.9323 235.138 32.8932 234.977 32.8672L233.25 32.5469C232.854 32.4792 232.521 32.388 232.25 32.2734C231.979 32.1589 231.76 32.0078 231.594 31.8203C231.432 31.6276 231.315 31.3932 231.242 31.1172C231.174 30.8359 231.141 30.4948 231.141 30.0938C231.141 29.2292 231.427 28.5859 232 28.1641C232.578 27.737 233.401 27.5234 234.469 27.5234C234.844 27.5234 235.188 27.5469 235.5 27.5938C235.818 27.6354 236.094 27.6849 236.328 27.7422C236.599 27.8047 236.846 27.875 237.07 27.9531V29.2812C236.82 29.2396 236.56 29.2031 236.289 29.1719C236.055 29.1458 235.792 29.1198 235.5 29.0938C235.214 29.0677 234.922 29.0547 234.625 29.0547C234.286 29.0547 234.005 29.0703 233.781 29.1016C233.557 29.1276 233.38 29.1745 233.25 29.2422C233.12 29.3099 233.029 29.3984 232.977 29.5078C232.924 29.612 232.898 29.7448 232.898 29.9062C232.898 30.0312 232.909 30.1432 232.93 30.2422C232.951 30.3411 232.995 30.4297 233.062 30.5078C233.13 30.5859 233.224 30.6536 233.344 30.7109C233.464 30.7682 233.625 30.8151 233.828 30.8516L235.617 31.1875C235.966 31.2552 236.26 31.3438 236.5 31.4531C236.745 31.5625 236.943 31.7109 237.094 31.8984C237.245 32.0859 237.354 32.3255 237.422 32.6172C237.49 32.9036 237.523 33.2578 237.523 33.6797C237.523 34.0807 237.482 34.4401 237.398 34.7578C237.32 35.0755 237.159 35.3438 236.914 35.5625C236.669 35.7812 236.323 35.9479 235.875 36.0625C235.427 36.1823 234.836 36.2422 234.102 36.2422C233.695 36.2422 233.312 36.2135 232.953 36.1562C232.594 36.1042 232.279 36.0443 232.008 35.9766C231.69 35.8984 231.396 35.8099 231.125 35.7109V34.4141ZM240.188 29.2969H238.969V27.7578H240.188V26.0156L242.039 25.6016V27.7578H244.117V29.2969H242.039V33.7266C242.039 33.9193 242.052 34.0781 242.078 34.2031C242.109 34.3281 242.161 34.4297 242.234 34.5078C242.312 34.5807 242.419 34.6328 242.555 34.6641C242.695 34.6901 242.875 34.7031 243.094 34.7031C243.297 34.7031 243.479 34.7005 243.641 34.6953C243.807 34.6849 243.948 34.6745 244.062 34.6641C244.198 34.6536 244.318 34.6406 244.422 34.625V35.8594C244.24 35.9323 244.044 35.9974 243.836 36.0547C243.654 36.1016 243.44 36.1432 243.195 36.1797C242.951 36.2214 242.682 36.2422 242.391 36.2422C241.984 36.2422 241.641 36.2031 241.359 36.125C241.083 36.0469 240.857 35.9297 240.68 35.7734C240.508 35.612 240.383 35.4115 240.305 35.1719C240.227 34.9271 240.188 34.6432 240.188 34.3203V29.2969ZM246.359 27.7578H247.961L248.07 28.6562C248.477 28.3906 248.932 28.1719 249.438 28C249.943 27.8281 250.51 27.7266 251.141 27.6953L251.125 29.6172C250.474 29.6276 249.909 29.6615 249.43 29.7188C248.956 29.7708 248.549 29.8646 248.211 30V36H246.359V27.7578ZM252.734 27.7578H254.586V33.375C254.586 33.5938 254.599 33.7786 254.625 33.9297C254.656 34.0807 254.719 34.2057 254.812 34.3047C254.906 34.3984 255.042 34.4688 255.219 34.5156C255.396 34.5573 255.633 34.5781 255.93 34.5781C256.242 34.5781 256.526 34.5625 256.781 34.5312C257.036 34.4948 257.255 34.4557 257.438 34.4141C257.651 34.362 257.844 34.3047 258.016 34.2422V27.7578H259.867V36H258.508L258.289 35.3906C257.997 35.5521 257.682 35.6953 257.344 35.8203C257.052 35.9245 256.714 36.0208 256.328 36.1094C255.948 36.1979 255.544 36.2422 255.117 36.2422C254.31 36.2422 253.711 36.0286 253.32 35.6016C252.93 35.1693 252.734 34.4974 252.734 33.5859V27.7578ZM261.906 31.875C261.906 31.0938 262 30.4297 262.188 29.8828C262.38 29.3359 262.638 28.8932 262.961 28.5547C263.289 28.2109 263.672 27.9609 264.109 27.8047C264.547 27.6484 265.013 27.5703 265.508 27.5703C265.888 27.5703 266.229 27.5964 266.531 27.6484C266.833 27.6953 267.091 27.7474 267.305 27.8047C267.555 27.8724 267.771 27.9479 267.953 28.0312V29.3125C267.776 29.2969 267.583 29.2786 267.375 29.2578C267.198 29.2474 266.997 29.237 266.773 29.2266C266.549 29.2109 266.315 29.2031 266.07 29.2031C265.68 29.2031 265.344 29.237 265.062 29.3047C264.781 29.3724 264.552 29.5026 264.375 29.6953C264.198 29.8828 264.068 30.151 263.984 30.5C263.901 30.8438 263.859 31.2969 263.859 31.8594C263.859 32.4323 263.906 32.8958 264 33.25C264.099 33.6042 264.247 33.8802 264.445 34.0781C264.643 34.2708 264.891 34.401 265.188 34.4688C265.484 34.5312 265.836 34.5625 266.242 34.5625C266.497 34.5625 266.732 34.5573 266.945 34.5469C267.164 34.5312 267.354 34.513 267.516 34.4922C267.703 34.4714 267.872 34.4453 268.023 34.4141V35.7109C267.857 35.8047 267.654 35.888 267.414 35.9609C267.211 36.0234 266.956 36.0807 266.648 36.1328C266.341 36.1849 265.982 36.2109 265.57 36.2109C265.065 36.2109 264.589 36.1406 264.141 36C263.698 35.8646 263.31 35.6302 262.977 35.2969C262.648 34.9635 262.388 34.5208 262.195 33.9688C262.003 33.4115 261.906 32.7135 261.906 31.875ZM270.594 29.2969H269.375V27.7578H270.594V26.0156L272.445 25.6016V27.7578H274.523V29.2969H272.445V33.7266C272.445 33.9193 272.458 34.0781 272.484 34.2031C272.516 34.3281 272.568 34.4297 272.641 34.5078C272.719 34.5807 272.826 34.6328 272.961 34.6641C273.102 34.6901 273.281 34.7031 273.5 34.7031C273.703 34.7031 273.885 34.7005 274.047 34.6953C274.214 34.6849 274.354 34.6745 274.469 34.6641C274.604 34.6536 274.724 34.6406 274.828 34.625V35.8594C274.646 35.9323 274.451 35.9974 274.242 36.0547C274.06 36.1016 273.846 36.1432 273.602 36.1797C273.357 36.2214 273.089 36.2422 272.797 36.2422C272.391 36.2422 272.047 36.2031 271.766 36.125C271.49 36.0469 271.263 35.9297 271.086 35.7734C270.914 35.612 270.789 35.4115 270.711 35.1719C270.633 34.9271 270.594 34.6432 270.594 34.3203V29.2969ZM277.836 26.3594C277.622 26.3594 277.445 26.3438 277.305 26.3125C277.169 26.2812 277.057 26.2266 276.969 26.1484C276.885 26.0703 276.826 25.9635 276.789 25.8281C276.758 25.6927 276.742 25.5182 276.742 25.3047C276.742 25.0911 276.758 24.9167 276.789 24.7812C276.826 24.6406 276.885 24.5286 276.969 24.4453C277.057 24.362 277.169 24.3047 277.305 24.2734C277.445 24.2422 277.622 24.2266 277.836 24.2266C278.049 24.2266 278.224 24.2422 278.359 24.2734C278.5 24.3047 278.612 24.362 278.695 24.4453C278.779 24.5286 278.836 24.6406 278.867 24.7812C278.898 24.9167 278.914 25.0911 278.914 25.3047C278.914 25.5182 278.898 25.6927 278.867 25.8281C278.836 25.9635 278.779 26.0703 278.695 26.1484C278.612 26.2266 278.5 26.2812 278.359 26.3125C278.224 26.3438 278.049 26.3594 277.836 26.3594ZM276.906 27.7578H278.766V36H276.906V27.7578ZM280.922 31.875C280.922 31.1771 280.997 30.5599 281.148 30.0234C281.299 29.4818 281.534 29.026 281.852 28.6562C282.174 28.2865 282.581 28.0052 283.07 27.8125C283.56 27.6198 284.146 27.5234 284.828 27.5234C285.51 27.5234 286.096 27.6198 286.586 27.8125C287.081 28.0052 287.487 28.2865 287.805 28.6562C288.122 29.026 288.357 29.4818 288.508 30.0234C288.659 30.5599 288.734 31.1771 288.734 31.875C288.734 32.5729 288.659 33.1953 288.508 33.7422C288.357 34.2839 288.122 34.7396 287.805 35.1094C287.487 35.4792 287.081 35.7604 286.586 35.9531C286.096 36.1458 285.51 36.2422 284.828 36.2422C284.146 36.2422 283.56 36.1458 283.07 35.9531C282.581 35.7604 282.174 35.4792 281.852 35.1094C281.534 34.7396 281.299 34.2839 281.148 33.7422C280.997 33.1953 280.922 32.5729 280.922 31.875ZM284.828 34.6719C285.24 34.6719 285.573 34.612 285.828 34.4922C286.083 34.3672 286.281 34.1875 286.422 33.9531C286.562 33.7135 286.656 33.4219 286.703 33.0781C286.755 32.7292 286.781 32.3281 286.781 31.875C286.781 31.4271 286.755 31.0312 286.703 30.6875C286.656 30.3385 286.562 30.0469 286.422 29.8125C286.281 29.5729 286.083 29.3932 285.828 29.2734C285.573 29.1484 285.24 29.0859 284.828 29.0859C284.422 29.0859 284.091 29.1484 283.836 29.2734C283.581 29.3932 283.38 29.5729 283.234 29.8125C283.094 30.0469 282.997 30.3385 282.945 30.6875C282.898 31.0312 282.875 31.4271 282.875 31.875C282.875 32.3281 282.898 32.7292 282.945 33.0781C282.997 33.4219 283.094 33.7135 283.234 33.9531C283.38 34.1875 283.581 34.3672 283.836 34.4922C284.091 34.612 284.422 34.6719 284.828 34.6719ZM290.766 27.7578H292.125L292.352 28.3672C292.638 28.2109 292.951 28.0703 293.289 27.9453C293.581 27.8411 293.917 27.7448 294.297 27.6562C294.677 27.5677 295.083 27.5234 295.516 27.5234C296.328 27.5234 296.927 27.737 297.312 28.1641C297.703 28.5859 297.898 29.25 297.898 30.1562V36H296.047V30.3828C296.047 30.1693 296.031 29.987 296 29.8359C295.974 29.6797 295.914 29.5547 295.82 29.4609C295.727 29.362 295.591 29.2891 295.414 29.2422C295.237 29.1953 295 29.1719 294.703 29.1719C294.391 29.1719 294.107 29.1927 293.852 29.2344C293.596 29.2708 293.378 29.3099 293.195 29.3516C292.982 29.4036 292.789 29.4609 292.617 29.5234V36H290.766V27.7578ZM203.422 44.8516H205.297V56H203.422V44.8516ZM208.016 47.7578H209.375L209.602 48.3672C209.888 48.2109 210.201 48.0703 210.539 47.9453C210.831 47.8411 211.167 47.7448 211.547 47.6562C211.927 47.5677 212.333 47.5234 212.766 47.5234C213.578 47.5234 214.177 47.737 214.562 48.1641C214.953 48.5859 215.148 49.25 215.148 50.1562V56H213.297V50.3828C213.297 50.1693 213.281 49.987 213.25 49.8359C213.224 49.6797 213.164 49.5547 213.07 49.4609C212.977 49.362 212.841 49.2891 212.664 49.2422C212.487 49.1953 212.25 49.1719 211.953 49.1719C211.641 49.1719 211.357 49.1927 211.102 49.2344C210.846 49.2708 210.628 49.3099 210.445 49.3516C210.232 49.4036 210.039 49.4609 209.867 49.5234V56H208.016V47.7578ZM218.312 49.2969H217.094V47.7578H218.312V46.0156L220.164 45.6016V47.7578H222.242V49.2969H220.164V53.7266C220.164 53.9193 220.177 54.0781 220.203 54.2031C220.234 54.3281 220.286 54.4297 220.359 54.5078C220.438 54.5807 220.544 54.6328 220.68 54.6641C220.82 54.6901 221 54.7031 221.219 54.7031C221.422 54.7031 221.604 54.7005 221.766 54.6953C221.932 54.6849 222.073 54.6745 222.188 54.6641C222.323 54.6536 222.443 54.6406 222.547 54.625V55.8594C222.365 55.9323 222.169 55.9974 221.961 56.0547C221.779 56.1016 221.565 56.1432 221.32 56.1797C221.076 56.2214 220.807 56.2422 220.516 56.2422C220.109 56.2422 219.766 56.2031 219.484 56.125C219.208 56.0469 218.982 55.9297 218.805 55.7734C218.633 55.612 218.508 55.4115 218.43 55.1719C218.352 54.9271 218.312 54.6432 218.312 54.3203V49.2969ZM223.922 51.7891C223.922 50.9297 224.034 50.224 224.258 49.6719C224.482 49.1198 224.779 48.6849 225.148 48.3672C225.518 48.0495 225.94 47.8307 226.414 47.7109C226.888 47.5859 227.375 47.5234 227.875 47.5234C228.505 47.5234 229.026 47.6094 229.438 47.7812C229.854 47.9531 230.185 48.1953 230.43 48.5078C230.674 48.8151 230.846 49.1849 230.945 49.6172C231.044 50.0495 231.094 50.526 231.094 51.0469C231.094 51.2917 231.083 51.5443 231.062 51.8047C231.047 52.0651 231.023 52.3333 230.992 52.6094H225.828C225.833 52.9792 225.872 53.2917 225.945 53.5469C226.023 53.7969 226.148 54.0026 226.32 54.1641C226.497 54.3203 226.729 54.4349 227.016 54.5078C227.307 54.5755 227.669 54.6094 228.102 54.6094C228.466 54.6094 228.807 54.6016 229.125 54.5859C229.443 54.5651 229.721 54.5417 229.961 54.5156C230.242 54.4896 230.497 54.4557 230.727 54.4141V55.7109C230.461 55.8099 230.172 55.8984 229.859 55.9766C229.594 56.0443 229.284 56.1042 228.93 56.1562C228.576 56.2135 228.198 56.2422 227.797 56.2422C227.182 56.2422 226.635 56.1641 226.156 56.0078C225.677 55.8568 225.271 55.6068 224.938 55.2578C224.609 54.9036 224.357 54.4427 224.18 53.875C224.008 53.3073 223.922 52.612 223.922 51.7891ZM229.383 51.2188V50.9219C229.383 50.6094 229.362 50.3385 229.32 50.1094C229.284 49.875 229.206 49.6823 229.086 49.5312C228.966 49.3802 228.797 49.2682 228.578 49.1953C228.359 49.1224 228.068 49.0859 227.703 49.0859C227.312 49.0859 226.992 49.1328 226.742 49.2266C226.497 49.3151 226.305 49.4505 226.164 49.6328C226.029 49.8099 225.935 50.0312 225.883 50.2969C225.836 50.5625 225.812 50.8698 225.812 51.2188H229.383ZM232.969 47.7578H234.57L234.68 48.6562C235.086 48.3906 235.542 48.1719 236.047 48C236.552 47.8281 237.12 47.7266 237.75 47.6953L237.734 49.6172C237.083 49.6276 236.518 49.6615 236.039 49.7188C235.565 49.7708 235.159 49.8646 234.82 50V56H232.969V47.7578ZM240.414 46.3594C240.201 46.3594 240.023 46.3438 239.883 46.3125C239.747 46.2812 239.635 46.2266 239.547 46.1484C239.464 46.0703 239.404 45.9635 239.367 45.8281C239.336 45.6927 239.32 45.5182 239.32 45.3047C239.32 45.0911 239.336 44.9167 239.367 44.7812C239.404 44.6406 239.464 44.5286 239.547 44.4453C239.635 44.362 239.747 44.3047 239.883 44.2734C240.023 44.2422 240.201 44.2266 240.414 44.2266C240.628 44.2266 240.802 44.2422 240.938 44.2734C241.078 44.3047 241.19 44.362 241.273 44.4453C241.357 44.5286 241.414 44.6406 241.445 44.7812C241.477 44.9167 241.492 45.0911 241.492 45.3047C241.492 45.5182 241.477 45.6927 241.445 45.8281C241.414 45.9635 241.357 46.0703 241.273 46.1484C241.19 46.2266 241.078 46.2812 240.938 46.3125C240.802 46.3438 240.628 46.3594 240.414 46.3594ZM239.484 47.7578H241.344V56H239.484V47.7578ZM243.5 51.875C243.5 51.1771 243.576 50.5599 243.727 50.0234C243.878 49.4818 244.112 49.026 244.43 48.6562C244.753 48.2865 245.159 48.0052 245.648 47.8125C246.138 47.6198 246.724 47.5234 247.406 47.5234C248.089 47.5234 248.674 47.6198 249.164 47.8125C249.659 48.0052 250.065 48.2865 250.383 48.6562C250.701 49.026 250.935 49.4818 251.086 50.0234C251.237 50.5599 251.312 51.1771 251.312 51.875C251.312 52.5729 251.237 53.1953 251.086 53.7422C250.935 54.2839 250.701 54.7396 250.383 55.1094C250.065 55.4792 249.659 55.7604 249.164 55.9531C248.674 56.1458 248.089 56.2422 247.406 56.2422C246.724 56.2422 246.138 56.1458 245.648 55.9531C245.159 55.7604 244.753 55.4792 244.43 55.1094C244.112 54.7396 243.878 54.2839 243.727 53.7422C243.576 53.1953 243.5 52.5729 243.5 51.875ZM247.406 54.6719C247.818 54.6719 248.151 54.612 248.406 54.4922C248.661 54.3672 248.859 54.1875 249 53.9531C249.141 53.7135 249.234 53.4219 249.281 53.0781C249.333 52.7292 249.359 52.3281 249.359 51.875C249.359 51.4271 249.333 51.0312 249.281 50.6875C249.234 50.3385 249.141 50.0469 249 49.8125C248.859 49.5729 248.661 49.3932 248.406 49.2734C248.151 49.1484 247.818 49.0859 247.406 49.0859C247 49.0859 246.669 49.1484 246.414 49.2734C246.159 49.3932 245.958 49.5729 245.812 49.8125C245.672 50.0469 245.576 50.3385 245.523 50.6875C245.477 51.0312 245.453 51.4271 245.453 51.875C245.453 52.3281 245.477 52.7292 245.523 53.0781C245.576 53.4219 245.672 53.7135 245.812 53.9531C245.958 54.1875 246.159 54.3672 246.414 54.4922C246.669 54.612 247 54.6719 247.406 54.6719ZM253.344 47.7578H254.945L255.055 48.6562C255.461 48.3906 255.917 48.1719 256.422 48C256.927 47.8281 257.495 47.7266 258.125 47.6953L258.109 49.6172C257.458 49.6276 256.893 49.6615 256.414 49.7188C255.94 49.7708 255.534 49.8646 255.195 50V56H253.344V47.7578Z" fill="black"/>
</svg>
