<svg xmlns="http://www.w3.org/2000/svg" width="145.044" height="28.24" viewBox="0 0 145.044 28.24">
  <g id="Group_3" data-name="Group 3" transform="translate(-249 -828)">
    <g id="azid_logo" transform="translate(249 827)">
      <g id="Group_2" data-name="Group 2" transform="translate(0 5.382)">
        <path id="Path_1" data-name="Path 1" d="M83.016,10H64.772l0,.979h10.1l-10.8,18.368H82.307l-.012-.977H72.212Z" transform="translate(-32.871 -10)" fill="#4de3a4"/>
        <path id="Path_2" data-name="Path 2" d="M35.873,21.353,42.2,35.172h-7.49L28.383,21.353Z" transform="translate(-14.563 -15.825)" fill="#4de3a4"/>
        <path id="Path_3" data-name="Path 3" d="M7.61,29.347,16.978,10H9.368L0,29.347Z" transform="translate(0 -10)" fill="#4de3a4"/>
        <path id="Path_4" data-name="Path 4" d="M117,10h-6.712V29.347H117Z" transform="translate(-56.589 -10)" fill="#4de3a4"/>
        <path id="Path_5" data-name="Path 5" d="M146.2,11.387A9.494,9.494,0,0,0,141.253,10h-8.261V28.952h8.261A9.47,9.47,0,0,0,146.2,11.387Zm-4.951,12.454h-3.213V15.118h3.213a4.371,4.371,0,1,1,0,8.742Z" transform="translate(-68.239 -10)" fill="#4de3a4"/>
      </g>
      <path id="Path_6" data-name="Path 6" d="M185.966,1V29.24" transform="translate(-95.421)" fill="none" stroke="#4de3a4" stroke-width="3"/>
      <path id="Path_7" data-name="Path 7" d="M203.871,4.342h1.209l1.776,5.428h-1.008L205.392,8.3h-1.849l-.438,1.472h-1Zm1.27,3.138-.669-2.3h-.015l-.669,2.3Zm2.4-1.723h.78l.054.437a2.94,2.94,0,0,1,.666-.32,3.037,3.037,0,0,1,.829-.148l-.008.936a8.157,8.157,0,0,0-.825.049,2.277,2.277,0,0,0-.594.137V9.771h-.9Zm2.83,2a3.017,3.017,0,0,1,.137-.97,1.78,1.78,0,0,1,.377-.647,1.429,1.429,0,0,1,.559-.365,2.011,2.011,0,0,1,.681-.114,2.948,2.948,0,0,1,.5.038A3.641,3.641,0,0,1,213,5.78a2.052,2.052,0,0,1,.316.11v.624l-.281-.027-.293-.015q-.164-.011-.342-.011a2.126,2.126,0,0,0-.491.049.647.647,0,0,0-.334.19.85.85,0,0,0-.19.392,2.916,2.916,0,0,0-.061.662,2.72,2.72,0,0,0,.069.677.9.9,0,0,0,.217.4.742.742,0,0,0,.361.19,2.529,2.529,0,0,0,.514.046c.124,0,.239,0,.342-.008s.2-.017.278-.027.173-.023.247-.038V9.63a1.481,1.481,0,0,1-.3.122,2.994,2.994,0,0,1-.373.084,3.173,3.173,0,0,1-.525.038,2.313,2.313,0,0,1-.7-.1,1.353,1.353,0,0,1-.567-.342,1.711,1.711,0,0,1-.38-.647A3.154,3.154,0,0,1,210.371,7.762Zm3.949-3.9h.9V5.951q.2-.076.434-.141c.132-.036.282-.068.452-.1a3.064,3.064,0,0,1,.533-.046,1.861,1.861,0,0,1,.495.061.8.8,0,0,1,.376.209.95.95,0,0,1,.24.407,2.132,2.132,0,0,1,.084.654V9.771h-.905V7.108a1.489,1.489,0,0,0-.023-.278.367.367,0,0,0-.1-.2.431.431,0,0,0-.213-.118,1.409,1.409,0,0,0-.365-.038,2.851,2.851,0,0,0-.361.023q-.175.023-.319.049-.171.03-.327.068V9.771h-.9Zm5.291,1.217a1.225,1.225,0,0,1-.259-.023.365.365,0,0,1-.163-.08.319.319,0,0,1-.088-.156,1.174,1.174,0,0,1-.023-.255,1.174,1.174,0,0,1,.023-.255.31.31,0,0,1,.251-.247,1.225,1.225,0,0,1,.259-.023,1.165,1.165,0,0,1,.255.023.3.3,0,0,1,.247.247,1.174,1.174,0,0,1,.023.255,1.174,1.174,0,0,1-.023.255.3.3,0,0,1-.084.156.341.341,0,0,1-.164.08A1.165,1.165,0,0,1,219.611,5.077Zm-.453.681h.905V9.771h-.905Zm2.51.749h-.594V5.757h.594V4.909l.9-.2v1.05h1.012v.749H222.57V8.664a1.17,1.17,0,0,0,.019.232.328.328,0,0,0,.076.148.334.334,0,0,0,.156.076,1.494,1.494,0,0,0,.263.019q.148,0,.266,0l.205-.015c.066-.005.124-.011.175-.019v.6a2.728,2.728,0,0,1-.285.1,3.124,3.124,0,0,1-.312.061,2.341,2.341,0,0,1-.392.03,1.9,1.9,0,0,1-.5-.057.839.839,0,0,1-.331-.171.693.693,0,0,1-.183-.293,1.368,1.368,0,0,1-.057-.415ZM224.4,7.72a2.769,2.769,0,0,1,.164-1.031A1.621,1.621,0,0,1,225,6.054a1.5,1.5,0,0,1,.616-.32,2.778,2.778,0,0,1,.711-.091,1.985,1.985,0,0,1,.761.126,1.156,1.156,0,0,1,.483.354,1.328,1.328,0,0,1,.251.54,3.121,3.121,0,0,1,.072.7q0,.179-.015.369c-.007.127-.019.257-.034.392h-2.514a1.768,1.768,0,0,0,.057.456.681.681,0,0,0,.183.3.8.8,0,0,0,.338.167,2.388,2.388,0,0,0,.529.049q.267,0,.5-.011t.407-.034q.205-.019.372-.049V9.63a3.929,3.929,0,0,1-.422.129,4.492,4.492,0,0,1-.453.087,3.449,3.449,0,0,1-.551.042,2.573,2.573,0,0,1-.8-.114,1.381,1.381,0,0,1-.594-.365,1.74,1.74,0,0,1-.369-.673A3.562,3.562,0,0,1,224.4,7.72Zm2.659-.278V7.3a2.223,2.223,0,0,0-.031-.4.592.592,0,0,0-.114-.281.512.512,0,0,0-.247-.164,1.387,1.387,0,0,0-.426-.053,1.35,1.35,0,0,0-.468.068.6.6,0,0,0-.281.2.763.763,0,0,0-.137.323,2.6,2.6,0,0,0-.035.449Zm1.472.319a3.017,3.017,0,0,1,.137-.97,1.78,1.78,0,0,1,.377-.647,1.429,1.429,0,0,1,.559-.365,2.011,2.011,0,0,1,.681-.114,2.948,2.948,0,0,1,.5.038,3.6,3.6,0,0,1,.376.076,2.059,2.059,0,0,1,.316.11v.624l-.281-.027-.293-.015q-.164-.011-.342-.011a2.12,2.12,0,0,0-.491.049.647.647,0,0,0-.335.19.845.845,0,0,0-.19.392,2.916,2.916,0,0,0-.061.662,2.719,2.719,0,0,0,.069.677.9.9,0,0,0,.217.4.743.743,0,0,0,.361.19,2.529,2.529,0,0,0,.514.046c.124,0,.239,0,.342-.008s.2-.017.278-.027.174-.023.247-.038V9.63a1.492,1.492,0,0,1-.3.122,3.014,3.014,0,0,1-.373.084,3.174,3.174,0,0,1-.525.038,2.313,2.313,0,0,1-.7-.1,1.353,1.353,0,0,1-.567-.342,1.711,1.711,0,0,1-.38-.647A3.154,3.154,0,0,1,228.531,7.762Zm4.23-1.255h-.593V5.757h.593V4.909l.9-.2v1.05h1.012v.749h-1.012V8.664a1.173,1.173,0,0,0,.019.232.328.328,0,0,0,.076.148.336.336,0,0,0,.156.076,1.484,1.484,0,0,0,.262.019c.1,0,.187,0,.266,0l.205-.015c.066-.005.124-.011.175-.019v.6a2.69,2.69,0,0,1-.285.1,3.1,3.1,0,0,1-.312.061,2.335,2.335,0,0,1-.391.03,1.9,1.9,0,0,1-.5-.057A.834.834,0,0,1,233,9.66a.684.684,0,0,1-.183-.293,1.367,1.367,0,0,1-.057-.415Zm3.005-.749h.9V8.492a1.625,1.625,0,0,0,.019.27.369.369,0,0,0,.091.183.431.431,0,0,0,.2.1,1.57,1.57,0,0,0,.346.03,3.424,3.424,0,0,0,.414-.023q.186-.027.32-.057a2.722,2.722,0,0,0,.281-.084V5.757h.9V9.771h-.662l-.107-.3a3.349,3.349,0,0,1-.46.209,4.434,4.434,0,0,1-.495.141,2.594,2.594,0,0,1-.59.065,1.13,1.13,0,0,1-.875-.312,1.433,1.433,0,0,1-.285-.981Zm4.74,0h.78l.054.437a2.94,2.94,0,0,1,.666-.32,3.037,3.037,0,0,1,.829-.148l-.008.936a8.157,8.157,0,0,0-.825.049,2.276,2.276,0,0,0-.594.137V9.771h-.9Zm2.83,1.963a2.769,2.769,0,0,1,.164-1.031,1.621,1.621,0,0,1,.434-.635,1.5,1.5,0,0,1,.616-.32,2.778,2.778,0,0,1,.711-.091,1.988,1.988,0,0,1,.761.126,1.159,1.159,0,0,1,.483.354,1.328,1.328,0,0,1,.251.54,3.121,3.121,0,0,1,.072.7q0,.179-.015.369t-.034.392h-2.514a1.77,1.77,0,0,0,.057.456.681.681,0,0,0,.183.3.8.8,0,0,0,.338.167,2.388,2.388,0,0,0,.529.049q.267,0,.5-.011t.407-.034q.206-.019.373-.049V9.63a4,4,0,0,1-.422.129,4.518,4.518,0,0,1-.453.087,3.455,3.455,0,0,1-.552.042,2.572,2.572,0,0,1-.8-.114,1.376,1.376,0,0,1-.594-.365,1.734,1.734,0,0,1-.369-.673A3.543,3.543,0,0,1,243.335,7.72Zm2.659-.278V7.3a2.273,2.273,0,0,0-.03-.4.592.592,0,0,0-.114-.281.511.511,0,0,0-.247-.164,1.388,1.388,0,0,0-.426-.053,1.35,1.35,0,0,0-.467.068.607.607,0,0,0-.282.2.769.769,0,0,0-.137.323,2.6,2.6,0,0,0-.034.449ZM204.612,19.6a2.829,2.829,0,0,1-.525-.049,1.82,1.82,0,0,1-.495-.171,1.746,1.746,0,0,1-.433-.327,1.932,1.932,0,0,1-.35-.525,3.264,3.264,0,0,1-.232-.757,5.527,5.527,0,0,1-.084-1.023,4.527,4.527,0,0,1,.1-.985,3.02,3.02,0,0,1,.255-.734,1.833,1.833,0,0,1,.373-.506,1.866,1.866,0,0,1,.449-.319,1.819,1.819,0,0,1,.479-.164,2.35,2.35,0,0,1,.468-.049,5.006,5.006,0,0,1,.662.038q.282.038.472.084a2.28,2.28,0,0,1,.377.122v.654l-.335-.023-.35-.015q-.194-.011-.407-.011-.194,0-.388.015a1.4,1.4,0,0,0-.369.08,1.1,1.1,0,0,0-.327.183,1.058,1.058,0,0,0-.266.335,1.977,1.977,0,0,0-.175.525,4.081,4.081,0,0,0-.061.765,4.346,4.346,0,0,0,.064.806,2.127,2.127,0,0,0,.179.559,1.126,1.126,0,0,0,.266.354,1.14,1.14,0,0,0,.331.2,1.531,1.531,0,0,0,.373.084q.194.015.388.015c.167,0,.319,0,.456-.008l.35-.015.308-.023v.654a2.377,2.377,0,0,1-.4.118,4.643,4.643,0,0,1-.487.08A5.1,5.1,0,0,1,204.612,19.6Zm2.29-2.1a3.337,3.337,0,0,1,.111-.9,1.707,1.707,0,0,1,.342-.666,1.5,1.5,0,0,1,.594-.411,2.671,2.671,0,0,1,1.711,0,1.47,1.47,0,0,1,.594.411,1.707,1.707,0,0,1,.342.666,3.336,3.336,0,0,1,.111.9,3.421,3.421,0,0,1-.111.909,1.707,1.707,0,0,1-.342.666,1.47,1.47,0,0,1-.594.411,2.671,2.671,0,0,1-1.711,0,1.5,1.5,0,0,1-.594-.411,1.707,1.707,0,0,1-.342-.666A3.422,3.422,0,0,1,206.9,17.5Zm1.9,1.362a1.152,1.152,0,0,0,.487-.087.674.674,0,0,0,.289-.262,1.128,1.128,0,0,0,.137-.426,4.011,4.011,0,0,0,.038-.586,3.9,3.9,0,0,0-.038-.578,1.1,1.1,0,0,0-.137-.426.644.644,0,0,0-.289-.262,1.334,1.334,0,0,0-.97,0,.665.665,0,0,0-.293.262,1.15,1.15,0,0,0-.141.426,4.309,4.309,0,0,0-.035.578,4.429,4.429,0,0,0,.035.586,1.183,1.183,0,0,0,.141.426.7.7,0,0,0,.293.262A1.143,1.143,0,0,0,208.8,18.862Zm2.891-3.366h.662l.111.3a3.44,3.44,0,0,1,.456-.205,4.534,4.534,0,0,1,.491-.141,2.614,2.614,0,0,1,.594-.065,1.123,1.123,0,0,1,.875.312,1.4,1.4,0,0,1,.285.97v2.845h-.9V16.773a1.346,1.346,0,0,0-.023-.266.328.328,0,0,0-.087-.183.412.412,0,0,0-.2-.106,1.4,1.4,0,0,0-.346-.034,2.581,2.581,0,0,0-.414.03q-.186.027-.319.057a2.686,2.686,0,0,0-.282.084v3.153h-.9Zm4.542,3.241q.167.038.373.068.175.027.41.046c.16.013.335.019.525.019a4.185,4.185,0,0,0,.495-.023.745.745,0,0,0,.274-.076.257.257,0,0,0,.122-.152.918.918,0,0,0,.026-.24.733.733,0,0,0-.011-.137.23.23,0,0,0-.046-.114.248.248,0,0,0-.107-.087.574.574,0,0,0-.186-.057l-.841-.156a2.224,2.224,0,0,1-.487-.133.776.776,0,0,1-.491-.563,2.154,2.154,0,0,1-.049-.5,1.09,1.09,0,0,1,.418-.94,2,2,0,0,1,1.2-.312,3.391,3.391,0,0,1,.5.034,3.777,3.777,0,0,1,.4.072,3.465,3.465,0,0,1,.361.1v.647q-.183-.03-.38-.053-.171-.019-.384-.038t-.426-.019a3.054,3.054,0,0,0-.411.023.758.758,0,0,0-.259.068.286.286,0,0,0-.133.129.427.427,0,0,0-.038.194.791.791,0,0,0,.016.164.288.288,0,0,0,.064.129.417.417,0,0,0,.137.1.949.949,0,0,0,.236.069l.871.164a1.932,1.932,0,0,1,.43.129.763.763,0,0,1,.289.217.861.861,0,0,1,.16.35,2.285,2.285,0,0,1,.049.517,2.058,2.058,0,0,1-.061.525.755.755,0,0,1-.236.392,1.194,1.194,0,0,1-.506.243,3.45,3.45,0,0,1-.863.087,3.551,3.551,0,0,1-.559-.042q-.262-.038-.46-.087a4.124,4.124,0,0,1-.43-.129Zm4.413-2.492h-.594V15.5h.594v-.848l.9-.2V15.5h1.012v.749h-1.012V18.4a1.171,1.171,0,0,0,.019.232.328.328,0,0,0,.076.148.334.334,0,0,0,.156.076,1.485,1.485,0,0,0,.262.019c.1,0,.187,0,.266,0l.2-.015q.1-.008.175-.019v.6a2.691,2.691,0,0,1-.285.1,3.1,3.1,0,0,1-.312.061,2.334,2.334,0,0,1-.391.03,1.9,1.9,0,0,1-.5-.057.834.834,0,0,1-.331-.171.684.684,0,0,1-.183-.293,1.368,1.368,0,0,1-.057-.415Zm3-.749h.78l.053.437a2.945,2.945,0,0,1,.666-.319,3.034,3.034,0,0,1,.829-.148l-.008.936a8.154,8.154,0,0,0-.825.049,2.271,2.271,0,0,0-.594.137v2.921h-.9Zm3.1,0h.9V18.23a1.625,1.625,0,0,0,.019.27.369.369,0,0,0,.091.183.432.432,0,0,0,.2.1,1.57,1.57,0,0,0,.346.03,3.423,3.423,0,0,0,.414-.023q.186-.027.32-.057a2.722,2.722,0,0,0,.281-.084V15.5h.9v4.013h-.662l-.107-.3a3.349,3.349,0,0,1-.46.209,4.434,4.434,0,0,1-.495.141,2.6,2.6,0,0,1-.59.065,1.13,1.13,0,0,1-.875-.312,1.433,1.433,0,0,1-.285-.981Zm4.466,2a3,3,0,0,1,.137-.97,1.773,1.773,0,0,1,.376-.647,1.428,1.428,0,0,1,.559-.365,2.011,2.011,0,0,1,.681-.114,2.953,2.953,0,0,1,.5.038,3.642,3.642,0,0,1,.377.076,2.053,2.053,0,0,1,.316.11v.624l-.281-.027-.293-.015q-.164-.011-.342-.011a2.126,2.126,0,0,0-.491.049.647.647,0,0,0-.334.19.85.85,0,0,0-.19.392,2.915,2.915,0,0,0-.061.662,2.719,2.719,0,0,0,.069.677.9.9,0,0,0,.217.4.744.744,0,0,0,.362.19,2.521,2.521,0,0,0,.513.046c.124,0,.239,0,.342-.008s.2-.017.278-.027.173-.023.247-.038v.631a1.48,1.48,0,0,1-.3.122,2.994,2.994,0,0,1-.373.084,3.174,3.174,0,0,1-.525.038,2.31,2.31,0,0,1-.7-.1,1.347,1.347,0,0,1-.567-.342,1.705,1.705,0,0,1-.381-.647A3.166,3.166,0,0,1,231.224,17.5Zm4.23-1.255h-.594V15.5h.594v-.848l.9-.2V15.5h1.012v.749h-1.012V18.4a1.17,1.17,0,0,0,.019.232.27.27,0,0,0,.232.224,1.488,1.488,0,0,0,.262.019q.148,0,.266,0l.205-.015c.066-.005.124-.011.175-.019v.6a2.654,2.654,0,0,1-.285.1,3.112,3.112,0,0,1-.312.061,2.34,2.34,0,0,1-.392.03,1.9,1.9,0,0,1-.5-.057.836.836,0,0,1-.331-.171.684.684,0,0,1-.183-.293,1.368,1.368,0,0,1-.057-.415Zm3.526-1.43a1.215,1.215,0,0,1-.259-.023.364.364,0,0,1-.164-.08.323.323,0,0,1-.088-.156,1.432,1.432,0,0,1,0-.51.35.35,0,0,1,.088-.164.345.345,0,0,1,.164-.084,1.219,1.219,0,0,1,.259-.023,1.167,1.167,0,0,1,.255.023.3.3,0,0,1,.247.247,1.43,1.43,0,0,1,0,.51.3.3,0,0,1-.084.156.341.341,0,0,1-.164.08A1.163,1.163,0,0,1,238.98,14.814Zm-.453.681h.906v4.013h-.906Zm1.955,2a3.337,3.337,0,0,1,.11-.9,1.708,1.708,0,0,1,.343-.666,1.5,1.5,0,0,1,.593-.411,2.673,2.673,0,0,1,1.712,0,1.47,1.47,0,0,1,.594.411,1.714,1.714,0,0,1,.342.666,3.338,3.338,0,0,1,.11.9,3.422,3.422,0,0,1-.11.909,1.713,1.713,0,0,1-.342.666,1.47,1.47,0,0,1-.594.411,2.673,2.673,0,0,1-1.712,0,1.5,1.5,0,0,1-.593-.411,1.708,1.708,0,0,1-.343-.666A3.422,3.422,0,0,1,240.482,17.5Zm1.9,1.362a1.153,1.153,0,0,0,.487-.087.677.677,0,0,0,.289-.262,1.146,1.146,0,0,0,.137-.426,4.014,4.014,0,0,0,.038-.586,3.9,3.9,0,0,0-.038-.578,1.116,1.116,0,0,0-.137-.426.647.647,0,0,0-.289-.262,1.334,1.334,0,0,0-.97,0,.669.669,0,0,0-.293.262,1.159,1.159,0,0,0-.141.426,4.316,4.316,0,0,0-.034.578,4.436,4.436,0,0,0,.034.586,1.192,1.192,0,0,0,.141.426.7.7,0,0,0,.293.262A1.143,1.143,0,0,0,242.384,18.862Zm2.891-3.366h.662l.111.3a3.438,3.438,0,0,1,.456-.205,4.534,4.534,0,0,1,.491-.141,2.611,2.611,0,0,1,.594-.065,1.121,1.121,0,0,1,.874.312,1.393,1.393,0,0,1,.285.97v2.845h-.9V16.773a1.346,1.346,0,0,0-.023-.266.325.325,0,0,0-.088-.183.408.408,0,0,0-.2-.106,1.4,1.4,0,0,0-.346-.034,2.581,2.581,0,0,0-.414.03c-.125.018-.231.037-.32.057a2.708,2.708,0,0,0-.281.084v3.153h-.9Zm-42.527,8.323h.913v5.428h-.913Zm2.237,1.415h.662l.111.3a3.439,3.439,0,0,1,.456-.205,4.534,4.534,0,0,1,.491-.141,2.611,2.611,0,0,1,.594-.065,1.121,1.121,0,0,1,.874.312,1.393,1.393,0,0,1,.285.97v2.845h-.9V26.511a1.343,1.343,0,0,0-.023-.266.325.325,0,0,0-.088-.183.408.408,0,0,0-.2-.106,1.4,1.4,0,0,0-.346-.034,2.58,2.58,0,0,0-.414.03c-.125.018-.231.037-.32.057a2.711,2.711,0,0,0-.281.084v3.153h-.9Zm5.013.749h-.593v-.749H210v-.848l.9-.2v1.05h1.012v.749H210.9v2.157a1.17,1.17,0,0,0,.019.232.328.328,0,0,0,.076.148.336.336,0,0,0,.156.076,1.484,1.484,0,0,0,.262.019c.1,0,.187,0,.266,0l.205-.015c.066-.005.124-.011.175-.019v.6a2.691,2.691,0,0,1-.285.1,3.1,3.1,0,0,1-.312.061,2.334,2.334,0,0,1-.391.03,1.9,1.9,0,0,1-.5-.057.834.834,0,0,1-.331-.171.684.684,0,0,1-.183-.293,1.367,1.367,0,0,1-.057-.415ZM212.73,27.2a2.769,2.769,0,0,1,.164-1.031,1.626,1.626,0,0,1,.433-.635,1.5,1.5,0,0,1,.616-.32,2.778,2.778,0,0,1,.711-.091,1.99,1.99,0,0,1,.761.126,1.162,1.162,0,0,1,.483.354,1.334,1.334,0,0,1,.251.54,3.119,3.119,0,0,1,.073.7q0,.179-.016.369c-.007.127-.019.257-.034.392h-2.514a1.768,1.768,0,0,0,.057.456.681.681,0,0,0,.183.3.8.8,0,0,0,.339.167,2.381,2.381,0,0,0,.529.049q.266,0,.5-.011c.155-.01.29-.022.407-.034q.205-.019.373-.049v.631a3.976,3.976,0,0,1-.423.129,4.479,4.479,0,0,1-.452.087,3.455,3.455,0,0,1-.552.042,2.573,2.573,0,0,1-.8-.114,1.377,1.377,0,0,1-.593-.365,1.728,1.728,0,0,1-.369-.673A3.543,3.543,0,0,1,212.73,27.2Zm2.659-.278v-.145a2.223,2.223,0,0,0-.031-.4.587.587,0,0,0-.114-.282.512.512,0,0,0-.247-.164,1.385,1.385,0,0,0-.426-.053,1.35,1.35,0,0,0-.468.069.6.6,0,0,0-.281.2.769.769,0,0,0-.137.323,2.6,2.6,0,0,0-.035.449Zm1.746-1.685h.78l.054.437a2.941,2.941,0,0,1,.666-.319,3.037,3.037,0,0,1,.829-.148l-.008.936a8.155,8.155,0,0,0-.825.049,2.276,2.276,0,0,0-.594.137v2.921h-.9Zm3.625-.681a1.218,1.218,0,0,1-.259-.023.364.364,0,0,1-.164-.08.327.327,0,0,1-.088-.156,1.43,1.43,0,0,1,0-.51.354.354,0,0,1,.088-.164.345.345,0,0,1,.164-.084,1.222,1.222,0,0,1,.259-.023,1.172,1.172,0,0,1,.255.023.3.3,0,0,1,.247.247,1.432,1.432,0,0,1,0,.51.3.3,0,0,1-.084.156.341.341,0,0,1-.163.08A1.168,1.168,0,0,1,220.759,24.552Zm-.453.681h.906v4.013h-.906Zm1.955,2a3.336,3.336,0,0,1,.111-.9,1.707,1.707,0,0,1,.342-.666,1.506,1.506,0,0,1,.593-.411,2.673,2.673,0,0,1,1.712,0,1.47,1.47,0,0,1,.594.411,1.708,1.708,0,0,1,.342.666,3.337,3.337,0,0,1,.11.9,3.422,3.422,0,0,1-.11.909,1.707,1.707,0,0,1-.342.666,1.47,1.47,0,0,1-.594.411,2.673,2.673,0,0,1-1.712,0,1.505,1.505,0,0,1-.593-.411,1.707,1.707,0,0,1-.342-.666A3.421,3.421,0,0,1,222.262,27.238Zm1.9,1.362a1.152,1.152,0,0,0,.487-.087.677.677,0,0,0,.289-.262,1.137,1.137,0,0,0,.137-.426,4.012,4.012,0,0,0,.038-.586,3.9,3.9,0,0,0-.038-.578,1.107,1.107,0,0,0-.137-.426.647.647,0,0,0-.289-.262,1.334,1.334,0,0,0-.97,0,.669.669,0,0,0-.293.262,1.169,1.169,0,0,0-.141.426,4.4,4.4,0,0,0-.034.578,4.524,4.524,0,0,0,.034.586,1.2,1.2,0,0,0,.141.426.7.7,0,0,0,.293.262A1.142,1.142,0,0,0,224.164,28.6Zm2.891-3.366h.78l.054.437a2.941,2.941,0,0,1,.666-.319,3.037,3.037,0,0,1,.829-.148l-.008.936a8.155,8.155,0,0,0-.825.049,2.276,2.276,0,0,0-.594.137v2.921h-.9Z" transform="translate(-103.704 -1.467)" fill="#fff"/>
    </g>
  </g>
</svg>
